<svg xmlns="http://www.w3.org/2000/svg" viewBox="0 0 800 600" width="800" height="600">
  <!-- Background Circle -->
  <circle cx="400" cy="300" r="250" fill="#FFF5F7" />
  
  <!-- Medical Professional -->
  <g id="doctor">
    <!-- Doctor Body -->
    <rect x="250" y="180" width="140" height="220" rx="20" fill="#E8F4FF" />
    
    <!-- Doctor Head -->
    <circle cx="320" cy="150" r="50" fill="#FFD8B5" />
    
    <!-- Doctor Face -->
    <circle cx="305" cy="140" r="5" fill="#333" /> <!-- Left Eye -->
    <circle cx="335" cy="140" r="5" fill="#333" /> <!-- Right Eye -->
    <path d="M310 160 Q320 170 330 160" stroke="#333" stroke-width="2" fill="none" /> <!-- Smile -->
    
    <!-- Doctor Hair -->
    <path d="M280 120 Q320 90 360 120" fill="#333" />
    
    <!-- Doctor Stethoscope -->
    <path d="M320 200 Q350 220 380 200" stroke="#333" stroke-width="3" fill="none" />
    <circle cx="380" cy="200" r="8" fill="#E12454" />
    
    <!-- Name Tag -->
    <rect x="290" y="220" width="60" height="20" rx="5" fill="#FFF" />
    <line x1="300" y1="230" x2="340" y2="230" stroke="#333" stroke-width="2" />
  </g>
  
  <!-- Blood Donor -->
  <g id="donor">
    <!-- Donor Body -->
    <rect x="420" y="200" width="120" height="200" rx="20" fill="#FFF" />
    
    <!-- Donor Head -->
    <circle cx="480" cy="170" r="45" fill="#FFD8B5" />
    
    <!-- Donor Face -->
    <circle cx="465" cy="160" r="5" fill="#333" /> <!-- Left Eye -->
    <circle cx="495" cy="160" r="5" fill="#333" /> <!-- Right Eye -->
    <path d="M470 185 Q480 190 490 185" stroke="#333" stroke-width="2" fill="none" /> <!-- Smile -->
    
    <!-- Donor Hair -->
    <path d="M450 140 Q480 120 510 140" fill="#333" />
    
    <!-- Donor Arm -->
    <path d="M420 250 Q370 270 350 230" fill="#FFD8B5" />
  </g>
  
  <!-- Blood Bag -->
  <g id="blood-bag">
    <path d="M350 230 L390 230 L390 320 Q370 340 350 320 Z" fill="#FFEFEF" stroke="#E12454" stroke-width="2" />
    <rect x="365" y="210" width="10" height="20" fill="#E8E8E8" />
    <path d="M365 240 L385 240" stroke="#E12454" stroke-width="1" />
    <path d="M365 250 L385 250" stroke="#E12454" stroke-width="1" />
    <path d="M365 260 L385 260" stroke="#E12454" stroke-width="1" />
    <ellipse cx="370" cy="300" rx="10" ry="15" fill="#E12454" opacity="0.5" />
  </g>
  
  <!-- Blood Drops -->
  <g id="blood-drops">
    <path d="M450 100 Q470 70 490 100 Q470 130 450 100 Z" fill="#E12454" opacity="0.8" />
    <path d="M500 150 Q510 130 520 150 Q510 170 500 150 Z" fill="#E12454" opacity="0.6" />
    <path d="M250 200 Q260 180 270 200 Q260 220 250 200 Z" fill="#E12454" opacity="0.7" />
  </g>
  
  <!-- Heart Beat Line -->
  <path d="M200 400 L250 400 L270 370 L290 430 L310 400 L330 400 L350 350 L370 450 L390 400 L410 400 L430 370 L450 430 L470 400 L490 400 L510 350 L530 450 L550 400 L600 400" stroke="#E12454" stroke-width="3" fill="none" />
</svg> 